<svg width="34" height="20" viewBox="0 0 34 20" fill="none" xmlns="http://www.w3.org/2000/svg">
<path d="M31.2479 2.04429C31.0248 2.08149 30.8016 2.19309 30.6156 2.30469L24.8125 5.6526V14.2828L30.6528 17.6307C31.7315 18.2631 33.0707 17.8911 33.7031 16.8123C33.8891 16.4775 34.0007 16.1055 34.0007 15.6964V4.20184C34.0007 2.82547 32.6987 1.7095 31.2479 2.04429Z" fill="#FF965B"/>
<path fill-rule="evenodd" clip-rule="evenodd" d="M3.71991 0H19.2319C21.2779 0 22.9519 1.63676 22.9519 3.71991V16.256C22.9519 18.302 21.2779 19.9759 19.2319 19.9759H3.71991C1.67396 19.9759 0 18.302 0 16.256V3.71991C0 1.67396 1.67396 0 3.71991 0ZM15.5 10.4076C16.1667 10.0227 16.1667 9.0604 15.5 8.6755L9.77632 5.37093C9.10965 4.98603 8.27632 5.46716 8.27632 6.23696V12.8461C8.27632 13.6159 9.10965 14.097 9.77632 13.7121L15.5 10.4076Z" fill="#FF965B"/>
</svg>
