<svg width="28" height="28" viewBox="0 0 28 28" fill="none" xmlns="http://www.w3.org/2000/svg">
<path d="M13.5 8.99609C13.0342 8.99609 12.6562 8.61809 12.6562 8.15234V3.93359C12.6562 3.46784 13.0342 3.08984 13.5 3.08984C13.9657 3.08984 14.3438 3.46784 14.3438 3.93359V8.15234C14.3438 8.61809 13.9657 8.99609 13.5 8.99609Z" fill="#00B4FF"/>
<path d="M27.0039 19.6914V20.5352C27.0039 20.7602 26.9139 20.9739 26.7564 21.1314L21.1314 26.7564C20.9739 26.9139 20.7602 27.0039 20.5352 27.0039H19.6914V20.5352C19.6914 20.0739 20.0739 19.6914 20.5352 19.6914H27.0039Z" fill="#00B4FF"/>
<path d="M23.9062 5.62109H15.4688V8.15234C15.4688 9.23797 14.5856 10.1211 13.5 10.1211C12.4144 10.1211 11.5312 9.23797 11.5312 8.15234V5.62109H3.09375C1.38375 5.62109 0 7.00484 0 8.71484V23.9023C0 25.6123 1.38375 26.9961 3.09375 26.9961H18.5625V20.5273C18.5625 19.4417 19.4456 18.5586 20.5312 18.5586H27V8.71484C27 7.00484 25.6162 5.62109 23.9062 5.62109ZM15.75 21.9336H5.34375C4.878 21.9336 4.5 21.5556 4.5 21.0898C4.5 20.6241 4.878 20.2461 5.34375 20.2461H15.75C16.2157 20.2461 16.5938 20.6241 16.5938 21.0898C16.5938 21.5556 16.2157 21.9336 15.75 21.9336ZM21.6562 17.4336H5.34375C4.878 17.4336 4.5 17.0556 4.5 16.5898C4.5 16.1241 4.878 15.7461 5.34375 15.7461H21.6562C22.122 15.7461 22.5 16.1241 22.5 16.5898C22.5 17.0556 22.122 17.4336 21.6562 17.4336ZM21.6562 12.9336H5.34375C4.878 12.9336 4.5 12.5556 4.5 12.0898C4.5 11.6241 4.878 11.2461 5.34375 11.2461H21.6562C22.122 11.2461 22.5 11.6241 22.5 12.0898C22.5 12.5556 22.122 12.9336 21.6562 12.9336Z" fill="#00B4FF"/>
<path d="M13.5039 4.5C12.263 4.5 11.2539 3.49088 11.2539 2.25C11.2539 1.00912 12.263 0 13.5039 0C14.7448 0 15.7539 1.00912 15.7539 2.25C15.7539 3.49088 14.7448 4.5 13.5039 4.5Z" fill="#00B4FF"/>
</svg>
